<svg width="210" height="37" viewBox="0 0 210 37" xmlns="http://www.w3.org/2000/svg"><title>Untitled 14</title><g fill="none" fill-rule="evenodd"><path d="M34.5 20H1.303M208.5 20h-33.197" stroke="#474747" stroke-linecap="round"/><path d="M52.138 4.233c0-.713 0-2.362-.222-2.963C51.626.512 50.713.512 50 .512V0c1.07.023 2.138.067 3.208.09 1.137-.023 2.25-.067 3.364-.09v.512c-.713 0-1.627 0-1.916.758-.223.6-.223 2.25-.223 2.963v6.282c0 .713 0 2.36.223 2.963.29.757 1.203.757 1.916.757v.513c-1.047-.022-2.14-.067-3.208-.09-1.114.023-2.25.068-3.364.09v-.513c.713 0 1.626 0 1.916-.757.222-.602.222-2.25.222-2.963V4.233M60.428 1.85C59.738.867 59.203.533 58 .51V0c.713.023 1.404.067 2.116.09.58-.023 1.18-.067 1.76-.09l9.402 11.473h.044V5.28c0-.96 0-2.518-.2-3.43C70.853.6 70.25.69 69.138.51V0c.823.023 1.625.067 2.45.09.78-.023 1.536-.067 2.36-.09v.512c-.824.09-1.403.022-1.692.98-.223.713-.268 3.008-.268 3.9v9.6h-.668c-.49-.6-.98-1.224-1.47-1.848l-8.71-10.56h-.045v7.485c0 .824 0 2.494.334 3.252.38.868 1.114.824 1.938.913v.513c-.845-.022-1.714-.067-2.56-.09-.825.023-1.65.068-2.474.09v-.513c.87-.09 1.694-.133 1.916-1.09.178-.803.178-2.206.178-3.076V1.85M88.88 3.475h-.602c-.134-2.183-.98-2.762-3.074-2.762-.825 0-2.162-.11-2.162.6v10.56c0 1.65.313 2.273 2.473 2.362v.513c-1.224-.022-2.473-.067-3.698-.09-1.18.023-2.34.068-3.542.09v-.513c2.16-.09 2.473-.712 2.473-2.36V1.314c0-.67-.98-.602-1.872-.602-2.205 0-3.274.11-3.363 2.762H75V0h13.68l.2 3.475M92.14 4.32c0-.712 0-2.36-.224-2.962C91.626.602 90.713.602 90 .602V0h11.072v3.363h-.512c-.423-2.606-1.582-2.76-3.944-2.76h-1.603c-.334 0-.49-.024-.558.087-.044.09-.02.335-.02.825v5.28c3.05.133 3.496-1.137 3.63-2.74h.512c-.022 1.002-.045 2.027-.09 3.03.045.912.068 1.85.09 2.762h-.513c-.31-2.34-1.492-2.45-3.63-2.45v3.653c0 .668 0 1.715.4 2.25.58.78 1.96.824 2.852.802 2.317-.045 3.832-.334 4.122-2.986h.51l-.2 3.587H90v-.513c.713 0 1.626 0 1.916-.756.223-.602.223-2.25.223-2.963V4.32M116.453 12.92c.712.825 1.047 1.137 2.182 1.315v.513c-.668-.022-1.336-.067-2.005-.09-.556.023-1.113.068-1.67.09l-1.048-1.293-3.698-4.59c-.735-.845-.645-.98-1.826-.98v2.63c0 .713 0 2.36.2 2.963.268.78 1.18.757 1.894.757v.513c-1.024-.022-2.072-.067-3.142-.09-1.113.023-2.227.068-3.34.09v-.513c.712 0 1.648 0 1.893-.757.2-.602.2-2.25.2-2.963V4.233c0-.713 0-2.362-.2-2.963-.245-.78-1.18-.758-1.893-.758V0c1.27.023 2.56.067 3.83.09.936-.023 1.894-.067 2.83-.09 2.54 0 5.102.58 5.102 3.676 0 2.406-1.827 3.63-4.033 3.832l4.723 5.413zm-8.065-5.636c2.784 0 4.812-.066 4.812-3.297 0-1.96-1.115-3.34-3.12-3.34-.266 0-1.247-.068-1.447.02-.29.135-.245.558-.245.803v5.814z" fill="#474747"/><path d="M121.032 10.27c-.334.846-1.07 2.494-1.07 3.363 0 .958 1.138.89 1.806.958v.514c-.825-.022-1.626-.067-2.45-.09-.78.023-1.538.068-2.318.09v-.513c1.203-.132 1.693-.49 2.14-1.58.623-1.426 1.224-2.83 1.848-4.256L124.396 0h.757l4.5 11.317c.268.58.758 1.937 1.16 2.45.49.646 1.158.735 1.916.824v.514c-1.048-.022-2.118-.067-3.166-.09-1.07.023-2.16.068-3.23.09v-.513c.624-.02 1.716.024 1.716-.845 0-.557-.245-1.226-.446-1.738l-.87-2.295h-5.502l-.2.557zM126.446 9l-2.45-6.283L121.52 9h4.924zM145.676.334h.334l.18 4.388h-.514c-.38-2.472-2.116-4.21-4.7-4.21-3.99 0-5.19 3.942-5.19 7.284 0 3.365 1.29 6.952 5.234 6.952 3.12 0 4.256-2.228 4.923-4.902h.402v4.88h-.29l-.534-1.137c-1.493 1.18-3.007 1.67-4.923 1.67-4.523 0-7.597-2.92-7.597-7.464C133 3.274 136.275 0 140.797 0c1.827 0 2.985.422 4.522 1.38l.356-1.046M161.88 3.475h-.602c-.134-2.183-.98-2.762-3.075-2.762-.825 0-2.16-.11-2.16.6v10.56c0 1.65.31 2.273 2.472 2.362v.513c-1.225-.022-2.473-.067-3.698-.09-1.18.023-2.34.068-3.542.09v-.513c2.16-.09 2.473-.712 2.473-2.36V1.314c0-.67-.98-.602-1.872-.602-2.206 0-3.275.11-3.364 2.762H148V0h13.678l.2 3.475M67.716 24.764h-.045l-1.76 6.06c-.6 1.782-1.225 3.542-1.826 5.324h-.757l-3.9-11.985c-.177-.513-.49-1.693-.823-2.07-.38-.514-.958-.537-1.604-.58V21c1.07.022 2.138.066 3.208.09 1.092-.024 2.205-.068 3.297-.09v.512c-.713.067-2.005.067-2.005 1.09 0 .514.512 2.162.67 2.72l2.338 7.64h.043L68.05 21h.712l3.654 11.785h.045l1.515-4.858c.29-.98 1.18-4.053 1.18-4.922 0-1.382-.8-1.382-1.915-1.493V21c.803.022 1.604.066 2.406.09.78-.024 1.537-.068 2.318-.09v.512c-1.65-.045-1.96 1.693-2.318 2.94L71.97 36.15h-.78l-3.474-11.384M80.14 25.232c0-.713 0-2.36-.224-2.963-.29-.758-1.203-.758-1.916-.758V21c1.07.022 2.14.066 3.208.09 1.137-.024 2.25-.068 3.365-.09v.512c-.713 0-1.627 0-1.916.757-.223.6-.223 2.25-.223 2.962v6.282c0 .713 0 2.362.223 2.963.29.758 1.203.758 1.916.758v.513c-1.047-.023-2.14-.068-3.208-.09-1.115.022-2.25.067-3.365.09v-.513c.713 0 1.626 0 1.916-.758.223-.6.223-2.25.223-2.963v-6.282M99.88 24.474h-.603c-.133-2.182-.98-2.76-3.074-2.76-.824 0-2.16-.113-2.16.6v10.56c0 1.648.312 2.272 2.472 2.36v.514c-1.225-.023-2.473-.068-3.698-.09-1.18.022-2.34.067-3.542.09v-.513c2.16-.09 2.472-.713 2.472-2.36v-10.56c0-.67-.98-.602-1.87-.602-2.206 0-3.275.11-3.364 2.76H86V21h13.68l.2 3.474M105.433 31.514c0 .713 0 2.362.222 2.963.29.758 1.203.758 1.916.758v.513c-1.068-.023-2.16-.068-3.23-.09-1.112.022-2.25.067-3.34.09v-.513c.713 0 1.626 0 1.915-.758.224-.6.224-2.25.224-2.963v-6.282c0-.713 0-2.36-.225-2.963-.29-.758-1.202-.758-1.915-.758V21c1.047.022 2.116.066 3.186.09 1.135-.024 2.25-.068 3.385-.09v.512c-.712 0-1.625 0-1.915.757-.222.6-.222 2.25-.222 2.962v2.584h7.953v-2.584c0-.713 0-2.36-.223-2.963-.29-.758-1.203-.758-1.916-.758V21c1.092.022 2.16.066 3.253.09 1.114-.024 2.205-.068 3.32-.09v.512c-.714 0-1.627 0-1.917.757-.222.6-.222 2.25-.222 2.962v6.282c0 .713 0 2.362.223 2.963.29.758 1.203.758 1.916.758v.513c-1.07-.023-2.162-.068-3.23-.09-1.114.022-2.23.067-3.343.09v-.513c.713 0 1.627 0 1.916-.758.223-.6.223-2.25.223-2.963V28.53h-7.953v2.984M139.88 29.843c0 4.055-1.583 6.15-5.815 6.15-3.99 0-5.926-1.404-5.926-5.437v-5.324c0-.713 0-2.36-.225-2.963-.29-.76-1.202-.76-1.915-.76V21c1.047.022 2.116.066 3.163.09 1.136-.024 2.25-.068 3.386-.09v.51c-.714 0-1.65-.02-1.916.76-.2.6-.2 2.25-.2 2.962v5.48c0 2.852 1.113 4.478 4.165 4.478 3.073 0 4.61-1.603 4.61-4.59v-4.878c0-.78 0-2.495-.223-3.185-.31-.936-1.203-1.026-2.07-1.026V21c.867.022 1.714.066 2.583.09.824-.024 1.65-.068 2.495-.09v.51c-.713.024-1.493 0-1.804.804-.31.802-.31 2.517-.31 3.408v4.12M143 31.515h.513c.445 2.25 1.648 4.144 4.21 4.144 1.738 0 3.186-.98 3.186-2.786 0-2.027-1.76-2.83-3.387-3.475-2.028-.78-4.188-1.85-4.188-4.39 0-2.54 1.983-4.01 4.41-4.01 1.226 0 2.363.423 3.365 1.136l.512-.868h.245l.112 3.853h-.514c-.513-1.847-1.56-3.518-3.72-3.518-1.427 0-2.607.913-2.607 2.36 0 1.76 1.58 2.362 2.962 2.94 2.317.96 4.9 2.12 4.9 5.037s-2.717 4.32-5.323 4.32c-1.516 0-2.697-.445-3.9-1.336l-.535.935H143v-4.345" fill="#474747"/></g></svg>