<svg width="110" height="58" viewBox="0 0 110 58" xmlns="http://www.w3.org/2000/svg"><title>Untitled 14</title><g fill="#474747" fill-rule="evenodd"><path d="M27.14 5.232c0-.713 0-2.36-.224-2.963-.29-.758-1.203-.758-1.916-.758V1c1.07.022 2.116.066 3.185.09 1.136-.024 2.25-.068 3.387-.09v.512c-.713 0-1.627 0-1.916.757-.223.6-.223 2.25-.223 2.962v6.595c0 2.852.446 3.32 3.275 3.32 1.047 0 2.25.043 3.163-.558 1.115-.692 1.25-1.538 1.45-2.785h.556l-.2 3.943c-.38-.022-.78-.045-1.16-.09-3.83.068-7.684.068-11.516.09v-.513c.713 0 1.626 0 1.916-.758.223-.6.223-2.25.223-2.963V5.232M41.14 5.32c0-.712 0-2.36-.224-2.962C40.626 1.6 39.713 1.6 39 1.6V1h11.073v3.363h-.513C49.137 1.757 47.978 1.6 45.617 1.6h-1.604c-.335 0-.49-.02-.558.09-.043.09-.02.334-.02.824v5.28c3.05.134 3.496-1.136 3.63-2.74h.513c-.023 1.003-.045 2.028-.09 3.03.045.913.067 1.85.09 2.763h-.513c-.312-2.34-1.492-2.45-3.63-2.45v3.653c0 .668 0 1.714.4 2.25.58.78 1.96.824 2.85.8 2.318-.043 3.833-.332 4.122-2.984h.513l-.2 3.587H39v-.513c.713 0 1.626 0 1.916-.757.223-.6.223-2.25.223-2.962V5.32M66.88 4.475h-.602c-.134-2.183-.98-2.762-3.075-2.762-.824 0-2.16-.112-2.16.6v10.56c0 1.65.31 2.273 2.472 2.362v.513c-1.225-.022-2.472-.067-3.698-.09-1.18.023-2.34.068-3.542.09v-.513c2.16-.09 2.473-.713 2.473-2.36V2.314c0-.67-.98-.602-1.87-.602-2.207 0-3.277.11-3.366 2.762H53V1h13.678l.2 3.475M69.223 4.99c1.048-.892 1.716-1.47 1.648-2.92-.222.18-.422.29-.733.29-.67 0-1.137-.578-1.137-1.202C69 .468 69.624 0 70.27 0c1.003 0 1.515 1.113 1.515 1.96 0 1.67-.98 2.54-2.272 3.41l-.29-.38M75 10.516h.512c.446 2.25 1.65 4.143 4.21 4.143 1.74 0 3.187-.98 3.187-2.786 0-2.027-1.76-2.83-3.388-3.475-2.027-.78-4.188-1.85-4.188-4.39 0-2.54 1.983-4.01 4.41-4.01 1.226 0 2.362.423 3.365 1.136l.512-.868h.245l.11 3.853h-.512c-.512-1.847-1.56-3.518-3.72-3.518-1.426 0-2.607.913-2.607 2.36 0 1.76 1.582 2.363 2.963 2.942 2.32.958 4.903 2.116 4.903 5.035 0 2.917-2.718 4.32-5.325 4.32-1.514 0-2.695-.445-3.898-1.336l-.535.936H75v-4.344M40.88 24.474h-.602c-.134-2.182-.98-2.76-3.074-2.76-.825 0-2.162-.113-2.162.6v10.56c0 1.648.312 2.272 2.473 2.36v.514c-1.225-.023-2.473-.068-3.698-.09-1.18.022-2.34.067-3.542.09v-.513c2.16-.09 2.472-.713 2.472-2.36v-10.56c0-.67-.98-.602-1.87-.602-2.206 0-3.275.11-3.365 2.76H27V21h13.68l.2 3.474M44.033 31.27c-.335.846-1.07 2.495-1.07 3.364 0 .958 1.136.89 1.804.958v.513c-.824-.023-1.626-.068-2.45-.09-.78.022-1.537.067-2.317.09v-.513c1.203-.134 1.693-.49 2.14-1.582.622-1.426 1.224-2.83 1.848-4.255L47.396 21h.758l4.5 11.318c.267.58.757 1.937 1.158 2.45.49.645 1.16.735 1.916.824v.513c-1.047-.023-2.116-.068-3.163-.09-1.07.022-2.16.067-3.23.09v-.513c.623-.022 1.715.022 1.715-.847 0-.556-.245-1.225-.446-1.737l-.868-2.295h-5.503l-.2.557zM49.446 30l-2.45-6.282L44.52 30h4.924z"/><path d="M57.14 25.232c0-.713 0-2.36-.224-2.963-.29-.76-1.203-.76-1.916-.76V21c1.07.022 2.118.066 3.187.09 1.136-.024 2.25-.068 3.386-.09v.51c-.713 0-1.626 0-1.916.76-.223.6-.223 2.25-.223 2.962v6.595c0 2.85.445 3.32 3.274 3.32 1.048 0 2.25.043 3.164-.558 1.114-.692 1.247-1.54 1.45-2.786h.555l-.2 3.944c-.38-.023-.78-.045-1.16-.09-3.83.067-7.685.067-11.517.09v-.513c.713 0 1.627 0 1.916-.758.223-.6.223-2.25.223-2.963v-6.282M73.433 30.2v2.63c0 2.115.067 2.226 2.206 2.405v.513c-1.092-.023-2.16-.068-3.253-.09-1.137.022-2.25.067-3.387.09v-.513c.713 0 1.627 0 1.916-.758.223-.6.223-2.25.223-2.963v-6.282c0-.713 0-2.36-.224-2.963-.29-.76-1.203-.76-1.916-.76V21c1.07.022 2.117.066 3.186.09 1.16-.024 2.294-.068 3.453-.09v.51c-2.14.18-2.207.314-2.207 2.408v5.435c1.07-1.113 5.37-5.658 5.37-6.95 0-.936-1.003-.824-1.67-.892V21c.89.022 1.76.066 2.65.09.78-.024 1.537-.068 2.317-.09v.51c-1.226.024-1.515.314-2.25 1.25l-3.565 4.41 3.097 3.565c.267.334 2.606 3.408 3.653 4.166.445.335.78.29 1.315.335v.513c-1.18-.023-2.362-.068-3.542-.09-1.136.022-2.25.067-3.387.09v-.513c.402 0 1.873.066 1.873-.668 0-.468-1.403-2.117-1.76-2.54l-2.72-3.275-1.38 1.448M31.878 45.476h-.6c-.134-2.184-.98-2.763-3.075-2.763-.825 0-2.16-.11-2.16.602v10.56c0 1.648.31 2.272 2.472 2.36v.513c-1.225-.022-2.473-.067-3.698-.09-1.18.023-2.34.068-3.542.09v-.512c2.16-.09 2.473-.713 2.473-2.362v-10.56c0-.668-.98-.6-1.872-.6-2.206 0-3.275.11-3.364 2.762H18V42h13.678l.2 3.476M33 49.685C33 45.253 36.877 42 41.177 42c4.254 0 7.997 3.12 7.997 7.53 0 4.566-3.587 7.73-8.087 7.73-4.344 0-8.087-3.096-8.087-7.575zm2.785 0c0 3.498 1.38 6.974 5.435 6.974 3.966 0 5.17-3.722 5.17-7.04 0-3.343-1.382-7.02-5.303-7.02-3.854 0-5.302 3.788-5.302 7.085zM53.094 46.28c0-.713 0-2.362-.2-2.963-.245-.78-1.182-.758-1.894-.758V42c.914.023 1.872.067 2.807.09 1.203-.023 2.406-.067 3.61-.09 4.7-.09 8.264 2.852 8.264 7.686 0 4.723-3.095 7.174-7.684 7.062-1.315-.022-2.652-.067-3.966-.09-1.025.023-2.027.068-3.03.09v-.512c.712 0 1.65 0 1.894-.758.2-.602.2-2.25.2-2.963V46.28zm2.295 6.55c0 .756-.09 1.826.356 2.472.51.757 1.648.847 2.495.847 3.9 0 4.656-2.81 4.656-6.106 0-4.41-1.27-7.44-6.037-7.44-.27 0-1.137-.045-1.338.155-.133.133-.133.512-.133.69v9.38zM70.032 52.27c-.335.846-1.07 2.495-1.07 3.364 0 .958 1.137.89 1.805.958v.512c-.825-.022-1.627-.067-2.45-.09-.78.023-1.538.068-2.317.09v-.512c1.202-.134 1.692-.49 2.14-1.582.622-1.426 1.223-2.83 1.847-4.255L73.395 42h.758l4.5 11.316c.268.58.758 1.94 1.158 2.45.492.647 1.16.737 1.918.826v.512c-1.047-.022-2.117-.067-3.164-.09-1.07.023-2.16.068-3.23.09v-.512c.624-.023 1.716.022 1.716-.847 0-.557-.245-1.226-.447-1.737l-.868-2.295h-5.503l-.2.556zM75.445 51l-2.45-6.282L70.52 51h4.925zM87.353 53.83c0 2.116.068 2.227 2.206 2.406v.512c-1.115-.022-2.228-.067-3.343-.09-1.135.023-2.272.068-3.408.09v-.512c2.16-.18 2.25-.312 2.25-2.407v-2.763l-2.05-3.542c-.246-.446-1.94-3.832-2.718-4.612-.38-.422-.758-.31-1.292-.4V42c1.002.023 2.027.067 3.03.09 1.046-.023 2.094-.067 3.14-.09v.512c-.49 0-1.67-.044-1.67.713 0 .58.31 1.07.58 1.56l2.895 5.37L88.4 47.88c.47-.778 2.206-3.63 2.206-4.43 0-.848-1.002-.87-1.603-.938V42c.8.023 1.58.067 2.383.09.735-.023 1.448-.067 2.183-.09v.512c-1.293.112-1.76.98-2.362 1.983l-3.855 6.372v2.962"/></g></svg>