<svg width="438" height="39" viewBox="0 0 438 39" xmlns="http://www.w3.org/2000/svg"><title>our-projects</title><g fill="none" fill-rule="evenodd"><path d="M148 15.812H1.45M437.187 15.812H288" stroke="#979797" stroke-linecap="round"/><path d="M204.6 13.76c4.04 0 7.26-2.84 7.26-6.94 0-3.96-3.36-6.76-7.18-6.76-3.86 0-7.34 2.92-7.34 6.9 0 4.02 3.36 6.8 7.26 6.8zm0-13.16c3.52 0 4.76 3.3 4.76 6.3 0 2.98-1.08 6.32-4.64 6.32-3.64 0-4.88-3.12-4.88-6.26 0-2.96 1.3-6.36 4.76-6.36zm21.22 3.94c0-.8 0-2.34.28-3.06.28-.72.98-.7 1.62-.72V.3c-.76.02-1.5.06-2.24.08-.78-.02-1.54-.06-2.32-.08v.46c.78 0 1.58.08 1.86.92.2.62.2 2.16.2 2.86v4.38c0 2.68-1.38 4.12-4.14 4.12-2.74 0-3.74-1.46-3.74-4.02V4.1c0-.64 0-2.12.18-2.66.24-.7 1.08-.68 1.72-.68V.3c-1.02.02-2.02.06-3.04.08-.94-.02-1.9-.06-2.84-.08v.46c.64 0 1.46 0 1.72.68.2.54.2 2.02.2 2.66v4.78c0 3.62 1.74 4.88 5.32 4.88 3.8 0 5.22-1.88 5.22-5.52v-3.7zm7.08-2.92c0-.22-.04-.6.22-.72.18-.08 1.06-.02 1.3-.02 1.8 0 2.8 1.24 2.8 3 0 2.9-1.82 2.96-4.32 2.96V1.62zm3 5.42c1.98-.18 3.62-1.28 3.62-3.44 0-2.78-2.3-3.3-4.58-3.3-.84.02-1.7.06-2.54.08-1.14-.02-2.3-.06-3.44-.08v.46c.64 0 1.48-.02 1.7.68.18.54.18 2.02.18 2.66v5.64c0 .64 0 2.12-.18 2.66-.22.68-1.06.68-1.7.68v.46c1-.02 2-.06 3-.08.96.02 1.9.06 2.82.08v-.46c-.64 0-1.46.02-1.7-.68-.18-.54-.18-2.02-.18-2.66V7.38c1.06 0 .98.12 1.64.88l3.32 4.12.94 1.16c.5-.02 1-.06 1.5-.08.6.02 1.2.06 1.8.08v-.46c-1.02-.16-1.32-.44-1.96-1.18l-4.24-4.86zm-61.02 20.28c.08 0 .98.06 1.34.06 2.38 0 5.2-.7 5.2-3.62 0-2.54-2.44-3.38-4.6-3.46-.96.02-1.9.06-2.86.08-1-.02-2-.06-3.02-.08v.46c.64 0 1.46-.02 1.7.68.18.54.18 2.02.18 2.68v5.62c0 .64 0 2.12-.18 2.66-.22.68-1.06.68-1.7.68v.46c1-.02 1.96-.06 2.94-.08 1.04.02 2.08.06 3.12.08v-.46c-.7-.04-1.64.1-1.92-.68-.2-.54-.2-2.02-.2-2.66v-2.42zm0-5.5c0-.5-.02-.72.14-.82.2-.12 1-.12 1.24-.12 1.94 0 2.86 1 2.86 2.94 0 2.16-1.02 3.04-3.08 3.04-.38 0-.78-.06-1.16-.08v-4.96zm11.6-.2c0-.22-.04-.6.22-.72.18-.08 1.06-.02 1.3-.02 1.8 0 2.8 1.24 2.8 3 0 2.9-1.82 2.96-4.32 2.96v-5.22zm3 5.42c1.98-.18 3.62-1.28 3.62-3.44 0-2.78-2.3-3.3-4.58-3.3-.84.02-1.7.06-2.54.08-1.14-.02-2.3-.06-3.44-.08v.46c.64 0 1.48-.02 1.7.68.18.54.18 2.02.18 2.66v5.64c0 .64 0 2.12-.18 2.66-.22.68-1.06.68-1.7.68v.46c1-.02 2-.06 3-.08.96.02 1.9.06 2.82.08v-.46c-.64 0-1.46.02-1.7-.68-.18-.54-.18-2.02-.18-2.66v-2.36c1.06 0 .98.12 1.64.88l3.32 4.12.94 1.16c.5-.02 1-.06 1.5-.08.6.02 1.2.06 1.8.08v-.46c-1.02-.16-1.32-.44-1.96-1.18l-4.24-4.86zm13.54 6.72c4.04 0 7.26-2.84 7.26-6.94 0-3.96-3.36-6.76-7.18-6.76-3.86 0-7.34 2.92-7.34 6.9 0 4.02 3.36 6.8 7.26 6.8zm0-13.16c3.52 0 4.76 3.3 4.76 6.3 0 2.98-1.08 6.32-4.64 6.32-3.64 0-4.88-3.12-4.88-6.26 0-2.96 1.3-6.36 4.76-6.36zm12.64 3.06c0-.74 0-1.78.2-2.22.3-.66 1.08-.68 1.72-.68v-.46c-1.02.02-2.02.06-3.02.08-.96-.02-1.92-.06-2.88-.08v.46c.64 0 1.44 0 1.72.68.1.24.2.7.2 1.18v12.72c0 .54-.06 1.02-.12 1.3-.24 1.14-.86 1.68-2.02 1.68-.76 0-1.08-.3-1.34-.96-.2-.44-.48-.84-1-.84-.46 0-.82.32-.82.78 0 1.32 2.22 1.46 3.14 1.46 1.42 0 2.7-.32 3.54-1.58.54-.8.64-1.84.68-2.82v-10.7zm4.8 6.04c0 .64 0 2.12-.2 2.66-.26.68-1.08.68-1.72.68v.46h10.88l.18-3.22h-.46c-.26 2.38-1.62 2.64-3.7 2.68-.8.02-2.04-.02-2.56-.72-.36-.48-.36-1.42-.36-2.02v-3.28c1.92 0 2.98.1 3.26 2.2h.46c-.02-.82-.04-1.66-.08-2.48.04-.9.06-1.82.08-2.72h-.46c-.12 1.44-.52 2.58-3.26 2.46v-4.74c0-.44-.02-.66.02-.74.06-.1.2-.08.5-.08h1.44c2.12 0 3.16.14 3.54 2.48h.46V20.3h-9.94v.54c.64 0 1.46 0 1.72.68.2.54.2 2.02.2 2.66v5.52zm21.96-8.4c-1.38-.86-2.42-1.24-4.06-1.24-4.06 0-7 2.94-7 7 0 4.08 2.76 6.7 6.82 6.7 1.72 0 3.08-.44 4.42-1.5l.48 1.02h.26V28.9h-.36c-.6 2.4-1.62 4.4-4.42 4.4-3.54 0-4.7-3.22-4.7-6.24 0-3 1.08-6.54 4.66-6.54 2.32 0 3.88 1.56 4.22 3.78h.46l-.16-3.94h-.3l-.32.94zm14.3-1h-12.28v3.12h.46c.08-2.38 1.04-2.48 3.02-2.48.8 0 1.68-.06 1.68.54v9.48c0 1.48-.28 2.04-2.22 2.12v.46c1.08-.02 2.12-.06 3.18-.08 1.1.02 2.22.06 3.32.08v-.46c-1.94-.08-2.22-.64-2.22-2.12v-9.48c0-.64 1.2-.54 1.94-.54 1.88 0 2.64.52 2.76 2.48h.54l-.18-3.12zm1.4 13.1h.22l.48-.84c1.08.8 2.14 1.2 3.5 1.2 2.34 0 4.78-1.26 4.78-3.88s-2.32-3.66-4.4-4.52c-1.24-.52-2.66-1.06-2.66-2.64 0-1.3 1.06-2.12 2.34-2.12 1.94 0 2.88 1.5 3.34 3.16h.46l-.1-3.46h-.22l-.46.78c-.9-.64-1.92-1.02-3.02-1.02-2.18 0-3.96 1.32-3.96 3.6 0 2.28 1.94 3.24 3.76 3.94 1.46.58 3.04 1.3 3.04 3.12 0 1.62-1.3 2.5-2.86 2.5-2.3 0-3.38-1.7-3.78-3.72h-.46v3.9z" fill="#474747"/></g></svg>